<?xml version="1.0" encoding="utf-8" standalone="no"?>
<!DOCTYPE svg PUBLIC "-//W3C//DTD SVG 1.1//EN"
  "http://www.w3.org/Graphics/SVG/1.1/DTD/svg11.dtd">
<svg xmlns:xlink="http://www.w3.org/1999/xlink" width="460.8pt" height="345.6pt" viewBox="0 0 460.8 345.6" xmlns="http://www.w3.org/2000/svg" version="1.1">
 <metadata>
  <rdf:RDF xmlns:dc="http://purl.org/dc/elements/1.1/" xmlns:cc="http://creativecommons.org/ns#" xmlns:rdf="http://www.w3.org/1999/02/22-rdf-syntax-ns#">
   <cc:Work>
    <dc:type rdf:resource="http://purl.org/dc/dcmitype/StillImage"/>
    <dc:date>2024-12-16T22:31:02.436724</dc:date>
    <dc:format>image/svg+xml</dc:format>
    <dc:creator>
     <cc:Agent>
      <dc:title>Matplotlib v3.9.2, https://matplotlib.org/</dc:title>
     </cc:Agent>
    </dc:creator>
   </cc:Work>
  </rdf:RDF>
 </metadata>
 <defs>
  <style type="text/css">*{stroke-linejoin: round; stroke-linecap: butt}</style>
 </defs>
 <g id="figure_1">
  <g id="patch_1">
   <path d="M 0 345.6 
L 460.8 345.6 
L 460.8 0 
L 0 0 
z
" style="fill: #ffffff"/>
  </g>
  <g id="axes_1">
   <g id="patch_2">
    <path d="M 57.6 307.584 
L 414.72 307.584 
L 414.72 41.472 
L 57.6 41.472 
z
" style="fill: #ffffff"/>
   </g>
   <g id="matplotlib.axis_1">
    <g id="xtick_1">
     <g id="line2d_1">
      <defs>
       <path id="mef2777366a" d="M 0 0 
L 0 3.5 
" style="stroke: #000000; stroke-width: 0.8"/>
      </defs>
      <g>
       <use xlink:href="#mef2777366a" x="73.832727" y="307.584" style="stroke: #000000; stroke-width: 0.8"/>
      </g>
     </g>
     <g id="text_1">
      <!-- 0 -->
      <g transform="translate(70.651477 322.182437) scale(0.1 -0.1)">
       <defs>
        <path id="DejaVuSans-30" d="M 2034 4250 
Q 1547 4250 1301 3770 
Q 1056 3291 1056 2328 
Q 1056 1369 1301 889 
Q 1547 409 2034 409 
Q 2525 409 2770 889 
Q 3016 1369 3016 2328 
Q 3016 3291 2770 3770 
Q 2525 4250 2034 4250 
z
M 2034 4750 
Q 2819 4750 3233 4129 
Q 3647 3509 3647 2328 
Q 3647 1150 3233 529 
Q 2819 -91 2034 -91 
Q 1250 -91 836 529 
Q 422 1150 422 2328 
Q 422 3509 836 4129 
Q 1250 4750 2034 4750 
z
" transform="scale(0.015625)"/>
       </defs>
       <use xlink:href="#DejaVuSans-30"/>
      </g>
     </g>
    </g>
    <g id="xtick_2">
     <g id="line2d_2">
      <g>
       <use xlink:href="#mef2777366a" x="138.893758" y="307.584" style="stroke: #000000; stroke-width: 0.8"/>
      </g>
     </g>
     <g id="text_2">
      <!-- 100 -->
      <g transform="translate(129.350008 322.182437) scale(0.1 -0.1)">
       <defs>
        <path id="DejaVuSans-31" d="M 794 531 
L 1825 531 
L 1825 4091 
L 703 3866 
L 703 4441 
L 1819 4666 
L 2450 4666 
L 2450 531 
L 3481 531 
L 3481 0 
L 794 0 
L 794 531 
z
" transform="scale(0.015625)"/>
       </defs>
       <use xlink:href="#DejaVuSans-31"/>
       <use xlink:href="#DejaVuSans-30" x="63.623047"/>
       <use xlink:href="#DejaVuSans-30" x="127.246094"/>
      </g>
     </g>
    </g>
    <g id="xtick_3">
     <g id="line2d_3">
      <g>
       <use xlink:href="#mef2777366a" x="203.95479" y="307.584" style="stroke: #000000; stroke-width: 0.8"/>
      </g>
     </g>
     <g id="text_3">
      <!-- 200 -->
      <g transform="translate(194.41104 322.182437) scale(0.1 -0.1)">
       <defs>
        <path id="DejaVuSans-32" d="M 1228 531 
L 3431 531 
L 3431 0 
L 469 0 
L 469 531 
Q 828 903 1448 1529 
Q 2069 2156 2228 2338 
Q 2531 2678 2651 2914 
Q 2772 3150 2772 3378 
Q 2772 3750 2511 3984 
Q 2250 4219 1831 4219 
Q 1534 4219 1204 4116 
Q 875 4013 500 3803 
L 500 4441 
Q 881 4594 1212 4672 
Q 1544 4750 1819 4750 
Q 2544 4750 2975 4387 
Q 3406 4025 3406 3419 
Q 3406 3131 3298 2873 
Q 3191 2616 2906 2266 
Q 2828 2175 2409 1742 
Q 1991 1309 1228 531 
z
" transform="scale(0.015625)"/>
       </defs>
       <use xlink:href="#DejaVuSans-32"/>
       <use xlink:href="#DejaVuSans-30" x="63.623047"/>
       <use xlink:href="#DejaVuSans-30" x="127.246094"/>
      </g>
     </g>
    </g>
    <g id="xtick_4">
     <g id="line2d_4">
      <g>
       <use xlink:href="#mef2777366a" x="269.015821" y="307.584" style="stroke: #000000; stroke-width: 0.8"/>
      </g>
     </g>
     <g id="text_4">
      <!-- 300 -->
      <g transform="translate(259.472071 322.182437) scale(0.1 -0.1)">
       <defs>
        <path id="DejaVuSans-33" d="M 2597 2516 
Q 3050 2419 3304 2112 
Q 3559 1806 3559 1356 
Q 3559 666 3084 287 
Q 2609 -91 1734 -91 
Q 1441 -91 1130 -33 
Q 819 25 488 141 
L 488 750 
Q 750 597 1062 519 
Q 1375 441 1716 441 
Q 2309 441 2620 675 
Q 2931 909 2931 1356 
Q 2931 1769 2642 2001 
Q 2353 2234 1838 2234 
L 1294 2234 
L 1294 2753 
L 1863 2753 
Q 2328 2753 2575 2939 
Q 2822 3125 2822 3475 
Q 2822 3834 2567 4026 
Q 2313 4219 1838 4219 
Q 1578 4219 1281 4162 
Q 984 4106 628 3988 
L 628 4550 
Q 988 4650 1302 4700 
Q 1616 4750 1894 4750 
Q 2613 4750 3031 4423 
Q 3450 4097 3450 3541 
Q 3450 3153 3228 2886 
Q 3006 2619 2597 2516 
z
" transform="scale(0.015625)"/>
       </defs>
       <use xlink:href="#DejaVuSans-33"/>
       <use xlink:href="#DejaVuSans-30" x="63.623047"/>
       <use xlink:href="#DejaVuSans-30" x="127.246094"/>
      </g>
     </g>
    </g>
    <g id="xtick_5">
     <g id="line2d_5">
      <g>
       <use xlink:href="#mef2777366a" x="334.076852" y="307.584" style="stroke: #000000; stroke-width: 0.8"/>
      </g>
     </g>
     <g id="text_5">
      <!-- 400 -->
      <g transform="translate(324.533102 322.182437) scale(0.1 -0.1)">
       <defs>
        <path id="DejaVuSans-34" d="M 2419 4116 
L 825 1625 
L 2419 1625 
L 2419 4116 
z
M 2253 4666 
L 3047 4666 
L 3047 1625 
L 3713 1625 
L 3713 1100 
L 3047 1100 
L 3047 0 
L 2419 0 
L 2419 1100 
L 313 1100 
L 313 1709 
L 2253 4666 
z
" transform="scale(0.015625)"/>
       </defs>
       <use xlink:href="#DejaVuSans-34"/>
       <use xlink:href="#DejaVuSans-30" x="63.623047"/>
       <use xlink:href="#DejaVuSans-30" x="127.246094"/>
      </g>
     </g>
    </g>
    <g id="xtick_6">
     <g id="line2d_6">
      <g>
       <use xlink:href="#mef2777366a" x="399.137883" y="307.584" style="stroke: #000000; stroke-width: 0.8"/>
      </g>
     </g>
     <g id="text_6">
      <!-- 500 -->
      <g transform="translate(389.594133 322.182437) scale(0.1 -0.1)">
       <defs>
        <path id="DejaVuSans-35" d="M 691 4666 
L 3169 4666 
L 3169 4134 
L 1269 4134 
L 1269 2991 
Q 1406 3038 1543 3061 
Q 1681 3084 1819 3084 
Q 2600 3084 3056 2656 
Q 3513 2228 3513 1497 
Q 3513 744 3044 326 
Q 2575 -91 1722 -91 
Q 1428 -91 1123 -41 
Q 819 9 494 109 
L 494 744 
Q 775 591 1075 516 
Q 1375 441 1709 441 
Q 2250 441 2565 725 
Q 2881 1009 2881 1497 
Q 2881 1984 2565 2268 
Q 2250 2553 1709 2553 
Q 1456 2553 1204 2497 
Q 953 2441 691 2322 
L 691 4666 
z
" transform="scale(0.015625)"/>
       </defs>
       <use xlink:href="#DejaVuSans-35"/>
       <use xlink:href="#DejaVuSans-30" x="63.623047"/>
       <use xlink:href="#DejaVuSans-30" x="127.246094"/>
      </g>
     </g>
    </g>
    <g id="text_7">
     <!-- Epoch -->
     <g transform="translate(220.849063 335.860562) scale(0.1 -0.1)">
      <defs>
       <path id="DejaVuSans-45" d="M 628 4666 
L 3578 4666 
L 3578 4134 
L 1259 4134 
L 1259 2753 
L 3481 2753 
L 3481 2222 
L 1259 2222 
L 1259 531 
L 3634 531 
L 3634 0 
L 628 0 
L 628 4666 
z
" transform="scale(0.015625)"/>
       <path id="DejaVuSans-70" d="M 1159 525 
L 1159 -1331 
L 581 -1331 
L 581 3500 
L 1159 3500 
L 1159 2969 
Q 1341 3281 1617 3432 
Q 1894 3584 2278 3584 
Q 2916 3584 3314 3078 
Q 3713 2572 3713 1747 
Q 3713 922 3314 415 
Q 2916 -91 2278 -91 
Q 1894 -91 1617 61 
Q 1341 213 1159 525 
z
M 3116 1747 
Q 3116 2381 2855 2742 
Q 2594 3103 2138 3103 
Q 1681 3103 1420 2742 
Q 1159 2381 1159 1747 
Q 1159 1113 1420 752 
Q 1681 391 2138 391 
Q 2594 391 2855 752 
Q 3116 1113 3116 1747 
z
" transform="scale(0.015625)"/>
       <path id="DejaVuSans-6f" d="M 1959 3097 
Q 1497 3097 1228 2736 
Q 959 2375 959 1747 
Q 959 1119 1226 758 
Q 1494 397 1959 397 
Q 2419 397 2687 759 
Q 2956 1122 2956 1747 
Q 2956 2369 2687 2733 
Q 2419 3097 1959 3097 
z
M 1959 3584 
Q 2709 3584 3137 3096 
Q 3566 2609 3566 1747 
Q 3566 888 3137 398 
Q 2709 -91 1959 -91 
Q 1206 -91 779 398 
Q 353 888 353 1747 
Q 353 2609 779 3096 
Q 1206 3584 1959 3584 
z
" transform="scale(0.015625)"/>
       <path id="DejaVuSans-63" d="M 3122 3366 
L 3122 2828 
Q 2878 2963 2633 3030 
Q 2388 3097 2138 3097 
Q 1578 3097 1268 2742 
Q 959 2388 959 1747 
Q 959 1106 1268 751 
Q 1578 397 2138 397 
Q 2388 397 2633 464 
Q 2878 531 3122 666 
L 3122 134 
Q 2881 22 2623 -34 
Q 2366 -91 2075 -91 
Q 1284 -91 818 406 
Q 353 903 353 1747 
Q 353 2603 823 3093 
Q 1294 3584 2113 3584 
Q 2378 3584 2631 3529 
Q 2884 3475 3122 3366 
z
" transform="scale(0.015625)"/>
       <path id="DejaVuSans-68" d="M 3513 2113 
L 3513 0 
L 2938 0 
L 2938 2094 
Q 2938 2591 2744 2837 
Q 2550 3084 2163 3084 
Q 1697 3084 1428 2787 
Q 1159 2491 1159 1978 
L 1159 0 
L 581 0 
L 581 4863 
L 1159 4863 
L 1159 2956 
Q 1366 3272 1645 3428 
Q 1925 3584 2291 3584 
Q 2894 3584 3203 3211 
Q 3513 2838 3513 2113 
z
" transform="scale(0.015625)"/>
      </defs>
      <use xlink:href="#DejaVuSans-45"/>
      <use xlink:href="#DejaVuSans-70" x="63.183594"/>
      <use xlink:href="#DejaVuSans-6f" x="126.660156"/>
      <use xlink:href="#DejaVuSans-63" x="187.841797"/>
      <use xlink:href="#DejaVuSans-68" x="242.822266"/>
     </g>
    </g>
   </g>
   <g id="matplotlib.axis_2">
    <g id="ytick_1">
     <g id="line2d_7">
      <defs>
       <path id="m3810629b0a" d="M 0 0 
L -3.5 0 
" style="stroke: #000000; stroke-width: 0.8"/>
      </defs>
      <g>
       <use xlink:href="#m3810629b0a" x="57.6" y="273.691138" style="stroke: #000000; stroke-width: 0.8"/>
      </g>
     </g>
     <g id="text_8">
      <!-- 0.02 -->
      <g transform="translate(28.334375 277.490357) scale(0.1 -0.1)">
       <defs>
        <path id="DejaVuSans-2e" d="M 684 794 
L 1344 794 
L 1344 0 
L 684 0 
L 684 794 
z
" transform="scale(0.015625)"/>
       </defs>
       <use xlink:href="#DejaVuSans-30"/>
       <use xlink:href="#DejaVuSans-2e" x="63.623047"/>
       <use xlink:href="#DejaVuSans-30" x="95.410156"/>
       <use xlink:href="#DejaVuSans-32" x="159.033203"/>
      </g>
     </g>
    </g>
    <g id="ytick_2">
     <g id="line2d_8">
      <g>
       <use xlink:href="#m3810629b0a" x="57.6" y="232.144273" style="stroke: #000000; stroke-width: 0.8"/>
      </g>
     </g>
     <g id="text_9">
      <!-- 0.04 -->
      <g transform="translate(28.334375 235.943492) scale(0.1 -0.1)">
       <use xlink:href="#DejaVuSans-30"/>
       <use xlink:href="#DejaVuSans-2e" x="63.623047"/>
       <use xlink:href="#DejaVuSans-30" x="95.410156"/>
       <use xlink:href="#DejaVuSans-34" x="159.033203"/>
      </g>
     </g>
    </g>
    <g id="ytick_3">
     <g id="line2d_9">
      <g>
       <use xlink:href="#m3810629b0a" x="57.6" y="190.597408" style="stroke: #000000; stroke-width: 0.8"/>
      </g>
     </g>
     <g id="text_10">
      <!-- 0.06 -->
      <g transform="translate(28.334375 194.396627) scale(0.1 -0.1)">
       <defs>
        <path id="DejaVuSans-36" d="M 2113 2584 
Q 1688 2584 1439 2293 
Q 1191 2003 1191 1497 
Q 1191 994 1439 701 
Q 1688 409 2113 409 
Q 2538 409 2786 701 
Q 3034 994 3034 1497 
Q 3034 2003 2786 2293 
Q 2538 2584 2113 2584 
z
M 3366 4563 
L 3366 3988 
Q 3128 4100 2886 4159 
Q 2644 4219 2406 4219 
Q 1781 4219 1451 3797 
Q 1122 3375 1075 2522 
Q 1259 2794 1537 2939 
Q 1816 3084 2150 3084 
Q 2853 3084 3261 2657 
Q 3669 2231 3669 1497 
Q 3669 778 3244 343 
Q 2819 -91 2113 -91 
Q 1303 -91 875 529 
Q 447 1150 447 2328 
Q 447 3434 972 4092 
Q 1497 4750 2381 4750 
Q 2619 4750 2861 4703 
Q 3103 4656 3366 4563 
z
" transform="scale(0.015625)"/>
       </defs>
       <use xlink:href="#DejaVuSans-30"/>
       <use xlink:href="#DejaVuSans-2e" x="63.623047"/>
       <use xlink:href="#DejaVuSans-30" x="95.410156"/>
       <use xlink:href="#DejaVuSans-36" x="159.033203"/>
      </g>
     </g>
    </g>
    <g id="ytick_4">
     <g id="line2d_10">
      <g>
       <use xlink:href="#m3810629b0a" x="57.6" y="149.050543" style="stroke: #000000; stroke-width: 0.8"/>
      </g>
     </g>
     <g id="text_11">
      <!-- 0.08 -->
      <g transform="translate(28.334375 152.849762) scale(0.1 -0.1)">
       <defs>
        <path id="DejaVuSans-38" d="M 2034 2216 
Q 1584 2216 1326 1975 
Q 1069 1734 1069 1313 
Q 1069 891 1326 650 
Q 1584 409 2034 409 
Q 2484 409 2743 651 
Q 3003 894 3003 1313 
Q 3003 1734 2745 1975 
Q 2488 2216 2034 2216 
z
M 1403 2484 
Q 997 2584 770 2862 
Q 544 3141 544 3541 
Q 544 4100 942 4425 
Q 1341 4750 2034 4750 
Q 2731 4750 3128 4425 
Q 3525 4100 3525 3541 
Q 3525 3141 3298 2862 
Q 3072 2584 2669 2484 
Q 3125 2378 3379 2068 
Q 3634 1759 3634 1313 
Q 3634 634 3220 271 
Q 2806 -91 2034 -91 
Q 1263 -91 848 271 
Q 434 634 434 1313 
Q 434 1759 690 2068 
Q 947 2378 1403 2484 
z
M 1172 3481 
Q 1172 3119 1398 2916 
Q 1625 2713 2034 2713 
Q 2441 2713 2670 2916 
Q 2900 3119 2900 3481 
Q 2900 3844 2670 4047 
Q 2441 4250 2034 4250 
Q 1625 4250 1398 4047 
Q 1172 3844 1172 3481 
z
" transform="scale(0.015625)"/>
       </defs>
       <use xlink:href="#DejaVuSans-30"/>
       <use xlink:href="#DejaVuSans-2e" x="63.623047"/>
       <use xlink:href="#DejaVuSans-30" x="95.410156"/>
       <use xlink:href="#DejaVuSans-38" x="159.033203"/>
      </g>
     </g>
    </g>
    <g id="ytick_5">
     <g id="line2d_11">
      <g>
       <use xlink:href="#m3810629b0a" x="57.6" y="107.503678" style="stroke: #000000; stroke-width: 0.8"/>
      </g>
     </g>
     <g id="text_12">
      <!-- 0.10 -->
      <g transform="translate(28.334375 111.302897) scale(0.1 -0.1)">
       <use xlink:href="#DejaVuSans-30"/>
       <use xlink:href="#DejaVuSans-2e" x="63.623047"/>
       <use xlink:href="#DejaVuSans-31" x="95.410156"/>
       <use xlink:href="#DejaVuSans-30" x="159.033203"/>
      </g>
     </g>
    </g>
    <g id="ytick_6">
     <g id="line2d_12">
      <g>
       <use xlink:href="#m3810629b0a" x="57.6" y="65.956813" style="stroke: #000000; stroke-width: 0.8"/>
      </g>
     </g>
     <g id="text_13">
      <!-- 0.12 -->
      <g transform="translate(28.334375 69.756031) scale(0.1 -0.1)">
       <use xlink:href="#DejaVuSans-30"/>
       <use xlink:href="#DejaVuSans-2e" x="63.623047"/>
       <use xlink:href="#DejaVuSans-31" x="95.410156"/>
       <use xlink:href="#DejaVuSans-32" x="159.033203"/>
      </g>
     </g>
    </g>
    <g id="text_14">
     <!-- Loss -->
     <g transform="translate(22.254688 185.495187) rotate(-90) scale(0.1 -0.1)">
      <defs>
       <path id="DejaVuSans-4c" d="M 628 4666 
L 1259 4666 
L 1259 531 
L 3531 531 
L 3531 0 
L 628 0 
L 628 4666 
z
" transform="scale(0.015625)"/>
       <path id="DejaVuSans-73" d="M 2834 3397 
L 2834 2853 
Q 2591 2978 2328 3040 
Q 2066 3103 1784 3103 
Q 1356 3103 1142 2972 
Q 928 2841 928 2578 
Q 928 2378 1081 2264 
Q 1234 2150 1697 2047 
L 1894 2003 
Q 2506 1872 2764 1633 
Q 3022 1394 3022 966 
Q 3022 478 2636 193 
Q 2250 -91 1575 -91 
Q 1294 -91 989 -36 
Q 684 19 347 128 
L 347 722 
Q 666 556 975 473 
Q 1284 391 1588 391 
Q 1994 391 2212 530 
Q 2431 669 2431 922 
Q 2431 1156 2273 1281 
Q 2116 1406 1581 1522 
L 1381 1569 
Q 847 1681 609 1914 
Q 372 2147 372 2553 
Q 372 3047 722 3315 
Q 1072 3584 1716 3584 
Q 2034 3584 2315 3537 
Q 2597 3491 2834 3397 
z
" transform="scale(0.015625)"/>
      </defs>
      <use xlink:href="#DejaVuSans-4c"/>
      <use xlink:href="#DejaVuSans-6f" x="53.962891"/>
      <use xlink:href="#DejaVuSans-73" x="115.144531"/>
      <use xlink:href="#DejaVuSans-73" x="167.244141"/>
     </g>
    </g>
   </g>
   <g id="line2d_13">
    <path d="M 73.832727 53.568 
L 74.483338 165.652177 
L 75.133948 170.471534 
L 75.784558 174.317873 
L 76.435169 180.337085 
L 77.736389 190.717608 
L 79.03761 196.671452 
L 79.68822 197.762022 
L 80.33883 200.980085 
L 80.989441 201.294029 
L 81.640051 203.631235 
L 82.290661 204.785262 
L 82.941272 207.339623 
L 83.591882 209.009891 
L 84.242492 209.974374 
L 84.893103 212.006992 
L 85.543713 212.40148 
L 86.194323 214.319936 
L 86.844934 214.874415 
L 87.495544 216.25897 
L 88.146154 220.102043 
L 88.796764 219.924068 
L 89.447375 220.794409 
L 90.097985 222.18894 
L 90.748595 222.53212 
L 91.399206 228.294323 
L 92.049816 230.790373 
L 92.700426 232.10124 
L 93.351037 235.802137 
L 94.001647 236.340101 
L 94.652257 238.604377 
L 95.302868 237.737317 
L 95.953478 238.630403 
L 96.604088 243.493708 
L 97.254698 240.75193 
L 97.905309 243.617821 
L 99.206529 244.000717 
L 99.85714 245.03258 
L 101.15836 246.347449 
L 101.808971 246.369396 
L 102.459581 248.510502 
L 103.110191 247.292824 
L 103.760802 247.830672 
L 104.411412 249.024035 
L 105.062022 248.433626 
L 105.712633 249.804004 
L 106.363243 250.159613 
L 107.013853 251.248886 
L 107.664463 250.386005 
L 108.315074 251.654425 
L 108.965684 252.476291 
L 109.616294 252.538569 
L 110.266905 254.51399 
L 110.917515 254.038976 
L 111.568125 256.736918 
L 112.218736 256.666232 
L 112.869346 255.502037 
L 113.519956 255.696886 
L 114.170567 258.75944 
L 114.821177 257.08148 
L 115.471787 258.355348 
L 116.122398 259.091961 
L 117.423618 259.638797 
L 118.074228 260.272357 
L 118.724839 259.792585 
L 119.375449 260.689462 
L 120.026059 260.381326 
L 120.67667 258.554094 
L 121.32728 262.749378 
L 121.97789 261.503005 
L 122.628501 262.344977 
L 123.279111 261.570351 
L 123.929721 262.014859 
L 124.580332 262.748898 
L 125.230942 262.227352 
L 125.881552 264.979573 
L 126.532163 262.586428 
L 127.182773 263.365844 
L 127.833383 263.868948 
L 128.483993 263.489551 
L 129.134604 263.539779 
L 129.785214 264.765919 
L 130.435824 266.808844 
L 131.086435 264.713717 
L 131.737045 263.782886 
L 132.387655 264.367789 
L 133.038266 266.378154 
L 133.688876 265.147723 
L 134.339486 264.92233 
L 134.990097 264.916228 
L 135.640707 265.856523 
L 136.291317 265.923385 
L 136.941927 267.527519 
L 137.592538 265.193362 
L 138.243148 267.52589 
L 138.893758 266.467451 
L 140.194979 266.137515 
L 140.845589 268.167169 
L 141.4962 267.124247 
L 142.14681 267.986977 
L 142.79742 267.247501 
L 143.448031 268.605397 
L 144.098641 269.463252 
L 144.749251 268.520631 
L 145.399862 268.567709 
L 146.050472 267.922456 
L 146.701082 268.523092 
L 147.351692 269.318592 
L 148.002303 269.84939 
L 148.652913 269.443607 
L 149.303523 269.441614 
L 149.954134 270.817804 
L 150.604744 269.549809 
L 151.255354 269.048233 
L 151.905965 270.584788 
L 152.556575 270.754188 
L 153.207185 270.267803 
L 153.857796 270.481967 
L 154.508406 270.545959 
L 155.159016 270.382703 
L 155.809627 271.836311 
L 156.460237 270.829157 
L 157.110847 271.609721 
L 157.761457 271.400486 
L 158.412068 271.399259 
L 159.062678 271.101846 
L 159.713288 271.722594 
L 160.363899 272.110818 
L 161.014509 272.360771 
L 161.665119 271.635495 
L 162.31573 273.178938 
L 162.96634 272.288936 
L 163.61695 272.814201 
L 164.267561 272.661361 
L 164.918171 273.778208 
L 165.568781 272.822083 
L 166.219392 272.788632 
L 166.870002 273.715145 
L 167.520612 273.129607 
L 168.821833 274.875726 
L 169.472443 272.750987 
L 170.123053 273.575577 
L 170.773664 273.608289 
L 172.074884 274.034421 
L 172.725495 275.090398 
L 173.376105 273.751575 
L 174.026715 275.055895 
L 174.677326 273.494406 
L 175.978546 275.127188 
L 176.629156 276.382871 
L 177.279767 274.185295 
L 177.930377 276.514417 
L 178.580987 275.178291 
L 179.231598 275.15634 
L 179.882208 275.88976 
L 180.532818 275.916327 
L 181.183429 275.254668 
L 181.834039 275.546928 
L 182.484649 276.693173 
L 183.13526 276.091961 
L 183.78587 276.305476 
L 184.43648 276.045177 
L 185.087091 277.093957 
L 185.737701 275.50426 
L 186.388311 277.6419 
L 187.038921 276.413651 
L 187.689532 277.243256 
L 188.340142 276.161091 
L 188.990752 276.683465 
L 189.641363 277.859799 
L 190.291973 277.066709 
L 190.942583 276.808882 
L 191.593194 278.226033 
L 192.243804 277.948964 
L 192.894414 278.123607 
L 193.545025 277.67234 
L 194.195635 277.481156 
L 194.846245 277.729959 
L 195.496856 278.702637 
L 196.798076 277.576508 
L 197.448686 278.724553 
L 198.099297 278.308485 
L 198.749907 279.295963 
L 199.400517 278.131838 
L 200.051128 278.517399 
L 200.701738 278.368665 
L 202.002959 279.182116 
L 202.653569 278.334065 
L 203.304179 278.867688 
L 203.95479 278.511096 
L 204.6054 279.174679 
L 205.25601 279.317787 
L 205.906621 279.293665 
L 206.557231 279.788288 
L 207.207841 279.755515 
L 207.858451 279.198436 
L 208.509062 280.096401 
L 209.159672 279.885146 
L 209.810282 279.835529 
L 210.460893 279.110687 
L 211.111503 279.953804 
L 213.063334 280.292225 
L 213.713944 279.441242 
L 214.364555 280.635104 
L 215.015165 281.118564 
L 215.665775 279.675899 
L 216.316385 280.48603 
L 216.966996 280.823921 
L 217.617606 280.540955 
L 218.268216 280.671592 
L 218.918827 280.93412 
L 219.569437 280.628166 
L 220.220047 281.495579 
L 220.870658 281.67644 
L 222.171878 280.683711 
L 222.822489 282.541821 
L 223.473099 281.384048 
L 224.123709 281.504215 
L 224.77432 282.52846 
L 225.42493 281.440096 
L 226.07554 280.802817 
L 227.376761 282.231452 
L 228.027371 282.01791 
L 228.677981 282.89084 
L 229.328592 282.048916 
L 229.979202 281.950417 
L 230.629812 282.287469 
L 231.280423 282.044845 
L 231.931033 282.109544 
L 232.581643 282.948501 
L 233.232254 282.784476 
L 233.882864 282.803298 
L 235.184085 283.12395 
L 235.834695 282.385251 
L 237.135915 283.315457 
L 237.786526 282.814138 
L 238.437136 283.059293 
L 239.087746 283.735944 
L 240.388967 283.411493 
L 241.039577 282.927713 
L 241.690188 283.853594 
L 242.340798 283.234278 
L 242.991408 283.558954 
L 243.642019 283.137614 
L 244.292629 284.357759 
L 244.943239 283.731746 
L 245.59385 283.854338 
L 246.24446 284.750572 
L 246.89507 284.193141 
L 247.54568 284.995378 
L 248.196291 283.727375 
L 248.846901 284.54519 
L 249.497511 284.719121 
L 250.148122 284.659857 
L 250.798732 283.889716 
L 251.449342 284.682187 
L 252.099953 284.40557 
L 252.750563 285.146747 
L 254.051784 284.38513 
L 254.702394 284.70932 
L 255.353004 284.902113 
L 256.003615 285.319316 
L 256.654225 285.344568 
L 257.304835 285.847572 
L 257.955445 284.815281 
L 258.606056 285.245768 
L 259.256666 285.500015 
L 259.907276 286.063917 
L 260.557887 285.217235 
L 261.208497 285.884277 
L 261.859107 286.297135 
L 262.509718 284.898408 
L 263.160328 286.00234 
L 263.810938 286.104894 
L 264.461549 285.593996 
L 265.112159 285.82801 
L 265.762769 285.760867 
L 266.413379 286.275838 
L 267.06399 286.217757 
L 267.7146 286.279252 
L 268.36521 286.485452 
L 269.015821 285.807383 
L 269.666431 286.820447 
L 270.317041 286.20109 
L 270.967652 286.518765 
L 271.618262 287.389248 
L 272.268872 286.662171 
L 272.919483 286.200703 
L 273.570093 287.247245 
L 274.220703 286.616153 
L 274.871314 287.28406 
L 275.521924 286.620001 
L 276.172534 286.892375 
L 276.823144 286.816684 
L 278.124365 287.479944 
L 278.774975 287.589988 
L 279.425586 287.225124 
L 280.726806 287.289219 
L 281.377417 286.891473 
L 282.028027 287.316674 
L 282.678637 287.527266 
L 283.329248 288.29966 
L 283.979858 287.605533 
L 284.630468 287.769182 
L 285.281079 287.447855 
L 285.931689 287.597533 
L 286.582299 287.423612 
L 287.232909 288.602526 
L 287.88352 287.919508 
L 288.53413 288.072756 
L 289.18474 287.556377 
L 289.835351 288.79433 
L 290.485961 287.994699 
L 291.136571 288.533919 
L 291.787182 288.6141 
L 292.437792 288.304544 
L 293.088402 288.127399 
L 293.739013 288.727859 
L 294.389623 288.933401 
L 295.040233 288.627437 
L 295.690844 288.191168 
L 296.341454 288.802524 
L 296.992064 288.893865 
L 297.642674 289.277727 
L 298.293285 289.226912 
L 298.943895 288.388325 
L 299.594505 288.726415 
L 300.245116 289.422636 
L 300.895726 288.190688 
L 301.546336 288.822358 
L 302.196947 289.840694 
L 302.847557 288.947686 
L 303.498167 288.858393 
L 304.799388 289.848657 
L 305.449998 289.602089 
L 306.100608 289.91742 
L 306.751219 289.585512 
L 307.401829 290.326608 
L 308.052439 289.373456 
L 308.70305 289.44394 
L 309.35366 289.949406 
L 311.305491 290.184695 
L 311.956101 290.299035 
L 312.606712 289.303022 
L 313.907932 290.529867 
L 314.558543 290.546671 
L 315.209153 289.888862 
L 315.859763 290.627918 
L 317.160984 289.969217 
L 317.811594 289.920685 
L 318.462204 290.746585 
L 319.112815 290.575107 
L 319.763425 290.777474 
L 320.414035 290.858978 
L 321.064646 291.13757 
L 321.715256 291.116975 
L 322.365866 290.53368 
L 323.016477 290.454167 
L 323.667087 291.503123 
L 324.317697 290.586522 
L 324.968308 291.381318 
L 325.618918 291.021035 
L 326.269528 290.414129 
L 326.920138 291.355935 
L 327.570749 291.276279 
L 328.221359 290.589343 
L 328.871969 291.694167 
L 329.52258 291.261221 
L 331.474411 291.16015 
L 332.125021 291.943016 
L 332.775631 291.44794 
L 333.426242 291.291824 
L 334.076852 291.702058 
L 334.727462 291.59605 
L 336.679293 291.999049 
L 337.329903 291.661656 
L 337.980514 291.975891 
L 338.631124 291.36934 
L 339.281734 292.01387 
L 339.932345 291.67269 
L 340.582955 292.382857 
L 341.233565 292.162637 
L 341.884176 292.678828 
L 342.534786 291.73424 
L 343.185396 292.151768 
L 343.836007 292.886744 
L 344.486617 292.246693 
L 345.137227 292.687004 
L 345.787837 292.256026 
L 346.438448 292.51966 
L 347.089058 292.642199 
L 347.739668 292.538541 
L 348.390279 292.321567 
L 349.040889 292.232417 
L 349.691499 293.026265 
L 350.34211 292.579945 
L 350.99272 292.983089 
L 351.64333 292.794812 
L 352.293941 293.016526 
L 352.944551 292.363302 
L 353.595161 293.553579 
L 354.245772 293.120608 
L 356.197602 292.784125 
L 356.848213 293.218837 
L 358.149433 293.481061 
L 358.800044 292.605666 
L 359.450654 292.954473 
L 360.751875 294.050081 
L 361.402485 294.051795 
L 362.053095 293.287969 
L 362.703706 292.740672 
L 364.004926 293.813717 
L 364.655537 293.623096 
L 365.306147 294.179319 
L 365.956757 292.690227 
L 366.607367 293.723942 
L 367.257978 293.456466 
L 369.209809 294.103712 
L 369.860419 293.31383 
L 370.511029 294.366928 
L 371.16164 293.222165 
L 371.81225 293.671323 
L 372.46286 294.689787 
L 373.113471 293.747068 
L 373.764081 293.749695 
L 374.414691 294.115964 
L 375.065302 293.681072 
L 375.715912 293.939907 
L 376.366522 294.055074 
L 377.017132 294.753891 
L 377.667743 294.39295 
L 378.318353 294.245777 
L 378.968963 293.507622 
L 379.619574 294.910087 
L 380.270184 294.046683 
L 380.920794 294.324534 
L 381.571405 294.756015 
L 382.222015 294.573397 
L 382.872625 294.728504 
L 383.523236 294.015564 
L 384.173846 293.702384 
L 384.824456 294.538325 
L 385.475066 295.128425 
L 386.125677 294.299872 
L 386.776287 294.196006 
L 387.426897 295.049577 
L 388.077508 294.467468 
L 388.728118 294.437202 
L 389.378728 295.419673 
L 390.029339 294.601891 
L 390.679949 294.467352 
L 391.330559 294.965676 
L 391.98117 295.148286 
L 392.63178 294.875319 
L 393.28239 294.871649 
L 394.583611 294.622927 
L 395.234221 295.095715 
L 395.884831 294.894521 
L 396.535442 294.520689 
L 397.186052 295.488 
L 397.836662 295.188613 
L 398.487273 294.554573 
L 398.487273 294.554573 
" clip-path="url(#p372e688663)" style="fill: none; stroke: #1f77b4; stroke-width: 1.5; stroke-linecap: square"/>
   </g>
   <g id="line2d_14">
    <path d="M 73.832727 161.6608 
L 74.483338 162.06004 
L 75.133948 170.4761 
L 75.784558 181.82301 
L 76.435169 185.111836 
L 77.085779 167.314204 
L 77.736389 187.889978 
L 78.386999 178.791774 
L 79.03761 198.840403 
L 79.68822 197.781987 
L 80.33883 190.475186 
L 80.989441 192.203579 
L 81.640051 207.580684 
L 82.290661 206.053017 
L 82.941272 198.879205 
L 83.591882 210.222431 
L 84.242492 205.781233 
L 84.893103 214.344693 
L 85.543713 204.863098 
L 86.194323 216.663317 
L 86.844934 216.98062 
L 87.495544 221.3908 
L 88.796764 212.9193 
L 89.447375 224.223005 
L 90.097985 217.993059 
L 90.748595 232.458188 
L 93.351037 237.848948 
L 94.001647 242.734123 
L 94.652257 238.438653 
L 95.302868 237.506719 
L 95.953478 245.357405 
L 96.604088 241.974584 
L 97.254698 247.048955 
L 97.905309 245.906691 
L 98.555919 243.216848 
L 99.206529 228.055421 
L 99.85714 237.543942 
L 100.50775 250.373232 
L 101.15836 251.533597 
L 101.808971 244.998994 
L 102.459581 246.099021 
L 103.110191 249.044326 
L 103.760802 242.497543 
L 104.411412 246.047218 
L 105.062022 248.778641 
L 105.712633 248.286095 
L 106.363243 252.050628 
L 107.013853 253.968148 
L 108.315074 246.011759 
L 108.965684 245.282719 
L 109.616294 257.863445 
L 110.266905 255.189002 
L 110.917515 254.442592 
L 111.568125 254.408852 
L 112.869346 259.856758 
L 113.519956 258.271797 
L 114.170567 253.969502 
L 114.821177 260.670924 
L 115.471787 261.807334 
L 116.122398 261.587972 
L 116.773008 262.216348 
L 117.423618 260.833921 
L 118.074228 262.679173 
L 118.724839 258.118339 
L 119.375449 263.502436 
L 120.026059 256.508498 
L 120.67667 259.28556 
L 121.32728 264.743469 
L 121.97789 261.41466 
L 122.628501 254.647161 
L 123.279111 261.009051 
L 123.929721 261.654274 
L 124.580332 257.969852 
L 125.230942 265.682805 
L 125.881552 261.587702 
L 126.532163 261.874219 
L 127.182773 264.506301 
L 127.833383 266.05263 
L 128.483993 256.948873 
L 129.134604 267.480723 
L 129.785214 262.265287 
L 130.435824 264.850863 
L 131.086435 262.491849 
L 131.737045 265.712618 
L 132.387655 267.197386 
L 133.038266 263.328752 
L 133.688876 266.331119 
L 134.339486 267.291364 
L 134.990097 260.595971 
L 135.640707 261.660105 
L 136.291317 266.016954 
L 136.941927 264.520304 
L 137.592538 268.144131 
L 138.243148 267.237557 
L 138.893758 268.694914 
L 139.544369 264.111023 
L 140.194979 269.959984 
L 140.845589 269.642252 
L 141.4962 265.475446 
L 142.14681 268.647108 
L 142.79742 266.884049 
L 143.448031 264.293676 
L 144.098641 267.997866 
L 144.749251 270.680156 
L 145.399862 270.163094 
L 146.050472 266.726733 
L 146.701082 270.537346 
L 147.351692 270.161914 
L 148.002303 266.360069 
L 148.652913 270.27522 
L 149.303523 265.845182 
L 149.954134 268.615403 
L 150.604744 264.488885 
L 151.255354 264.747845 
L 151.905965 271.840455 
L 152.556575 269.100167 
L 153.207185 264.125429 
L 154.508406 271.004845 
L 155.159016 271.224744 
L 155.809627 271.615955 
L 156.460237 272.41308 
L 157.110847 269.381028 
L 157.761457 272.523504 
L 158.412068 271.782182 
L 159.062678 270.538785 
L 159.713288 269.925667 
L 160.363899 272.49359 
L 161.014509 270.97808 
L 161.665119 272.731749 
L 162.31573 273.569255 
L 162.96634 274.073261 
L 163.61695 272.686253 
L 164.267561 273.413003 
L 164.918171 273.354366 
L 166.219392 272.031729 
L 166.870002 268.344161 
L 167.520612 274.664259 
L 168.171222 271.255397 
L 168.821833 274.394828 
L 170.123053 271.458167 
L 170.773664 270.440109 
L 171.424274 274.452864 
L 172.074884 274.475198 
L 172.725495 273.848282 
L 173.376105 274.494533 
L 174.026715 270.477015 
L 174.677326 272.241358 
L 175.327936 275.492478 
L 175.978546 275.178968 
L 176.629156 273.496701 
L 177.279767 276.082744 
L 177.930377 272.542297 
L 178.580987 275.340269 
L 179.231598 273.112056 
L 179.882208 275.999375 
L 180.532818 276.032361 
L 181.183429 272.6544 
L 181.834039 276.416983 
L 182.484649 275.801953 
L 183.13526 274.720461 
L 183.78587 271.79593 
L 184.43648 275.217147 
L 185.087091 275.22095 
L 185.737701 275.831004 
L 186.388311 271.647254 
L 187.038921 271.82247 
L 187.689532 275.008372 
L 188.990752 272.881547 
L 190.291973 276.500391 
L 190.942583 275.67303 
L 191.593194 273.270835 
L 192.243804 273.795523 
L 192.894414 277.467694 
L 193.545025 276.700274 
L 194.195635 274.633188 
L 194.846245 277.305251 
L 195.496856 276.12776 
L 196.147466 275.707189 
L 196.798076 277.843443 
L 197.448686 276.943625 
L 198.099297 278.236368 
L 198.749907 274.893096 
L 199.400517 278.314115 
L 200.051128 276.327686 
L 200.701738 276.182372 
L 201.352348 277.419304 
L 202.002959 277.92646 
L 202.653569 275.126747 
L 203.304179 276.843977 
L 203.95479 278.153955 
L 204.6054 277.878604 
L 205.25601 274.633339 
L 205.906621 277.061331 
L 206.557231 275.60835 
L 207.207841 276.822886 
L 207.858451 277.613781 
L 208.509062 275.381772 
L 209.159672 278.562787 
L 209.810282 275.416356 
L 210.460893 277.554329 
L 211.111503 279.091159 
L 211.762113 276.331044 
L 212.412724 275.968142 
L 213.063334 276.513786 
L 213.713944 279.657121 
L 214.364555 275.342672 
L 215.015165 273.881171 
L 215.665775 277.776465 
L 216.316385 279.427638 
L 216.966996 277.875559 
L 217.617606 280.010946 
L 218.268216 279.622622 
L 218.918827 276.478297 
L 219.569437 279.782906 
L 220.220047 279.043124 
L 220.870658 277.838514 
L 221.521268 278.835832 
L 222.171878 280.793237 
L 223.473099 278.908471 
L 224.123709 280.756161 
L 224.77432 279.876413 
L 225.42493 278.4611 
L 226.07554 279.312517 
L 226.72615 281.094443 
L 227.376761 279.213813 
L 228.027371 281.719692 
L 228.677981 280.853251 
L 229.328592 281.140507 
L 229.979202 279.638707 
L 230.629812 281.067512 
L 231.280423 276.919554 
L 231.931033 281.534427 
L 232.581643 280.776846 
L 233.882864 281.9623 
L 234.533474 280.028455 
L 235.184085 281.581803 
L 235.834695 279.605036 
L 236.485305 281.824605 
L 237.135915 279.767436 
L 237.786526 278.89646 
L 238.437136 281.46698 
L 239.087746 281.748727 
L 239.738357 282.728235 
L 241.039577 281.880912 
L 241.690188 282.959121 
L 242.340798 279.471396 
L 242.991408 277.488681 
L 243.642019 282.86142 
L 244.292629 281.11134 
L 244.943239 282.329997 
L 245.59385 282.968831 
L 246.24446 281.939204 
L 246.89507 283.148495 
L 247.54568 281.408716 
L 248.196291 283.310961 
L 248.846901 280.732434 
L 249.497511 283.512779 
L 250.148122 282.330078 
L 250.798732 277.860832 
L 251.449342 282.918715 
L 252.099953 282.341872 
L 252.750563 282.727937 
L 253.401173 280.299863 
L 254.051784 280.510643 
L 254.702394 281.524657 
L 255.353004 283.417606 
L 256.003615 283.478872 
L 256.654225 283.180761 
L 257.304835 283.581092 
L 257.955445 282.848657 
L 258.606056 283.06843 
L 259.256666 284.251468 
L 259.907276 282.162593 
L 260.557887 283.289985 
L 261.208497 284.046289 
L 261.859107 283.138048 
L 262.509718 282.733207 
L 263.160328 284.475391 
L 263.810938 277.799507 
L 264.461549 283.643344 
L 265.112159 282.87403 
L 265.762769 282.411126 
L 266.413379 285.079567 
L 267.06399 282.827884 
L 267.7146 281.599486 
L 268.36521 283.684675 
L 269.015821 283.412153 
L 269.666431 283.296755 
L 270.317041 282.029956 
L 270.967652 279.0109 
L 271.618262 282.821442 
L 272.268872 284.534741 
L 272.919483 283.841924 
L 273.570093 284.960832 
L 274.220703 283.610167 
L 274.871314 283.665553 
L 275.521924 285.290375 
L 276.172534 282.438931 
L 276.823144 283.750607 
L 277.473755 282.605495 
L 278.124365 285.986911 
L 278.774975 281.76884 
L 279.425586 285.484545 
L 280.076196 283.244443 
L 280.726806 284.712737 
L 281.377417 285.824433 
L 282.028027 285.714905 
L 282.678637 285.177644 
L 283.329248 285.096542 
L 283.979858 285.165608 
L 284.630468 282.617668 
L 285.281079 283.396346 
L 285.931689 282.703386 
L 286.582299 286.322939 
L 287.232909 286.345608 
L 287.88352 285.941493 
L 289.18474 285.836326 
L 289.835351 286.719378 
L 290.485961 285.043638 
L 291.136571 286.148807 
L 291.787182 283.220842 
L 292.437792 284.701241 
L 293.088402 285.121718 
L 293.739013 286.460294 
L 294.389623 286.579694 
L 295.040233 286.199666 
L 295.690844 286.442013 
L 296.341454 285.411238 
L 296.992064 285.330684 
L 297.642674 286.742824 
L 298.293285 284.941104 
L 298.943895 286.037658 
L 299.594505 286.649027 
L 300.245116 286.962627 
L 300.895726 286.776089 
L 301.546336 286.070056 
L 302.196947 286.286972 
L 302.847557 285.436527 
L 303.498167 284.957565 
L 304.148778 286.190014 
L 304.799388 285.867474 
L 305.449998 285.795875 
L 306.100608 287.275431 
L 306.751219 287.459227 
L 307.401829 285.961141 
L 308.052439 286.163079 
L 308.70305 284.149442 
L 309.35366 287.292085 
L 310.00427 286.930765 
L 310.654881 287.569188 
L 311.305491 287.464714 
L 311.956101 286.099358 
L 312.606712 286.460969 
L 313.257322 287.065919 
L 313.907932 288.10164 
L 314.558543 285.266488 
L 315.209153 285.154573 
L 315.859763 287.847679 
L 316.510373 287.303428 
L 317.160984 284.83261 
L 318.462204 288.121154 
L 319.112815 287.056743 
L 319.763425 288.25524 
L 320.414035 286.359698 
L 321.064646 288.182382 
L 321.715256 288.363325 
L 323.016477 286.352741 
L 323.667087 287.580148 
L 324.317697 287.835475 
L 324.968308 288.298355 
L 325.618918 285.755247 
L 326.269528 289.131846 
L 326.920138 287.036284 
L 327.570749 286.456208 
L 328.221359 287.107184 
L 328.871969 288.582311 
L 329.52258 288.436076 
L 330.17319 287.838892 
L 330.8238 288.169811 
L 331.474411 286.137661 
L 332.125021 287.544444 
L 332.775631 288.181446 
L 333.426242 287.686225 
L 334.076852 284.784544 
L 334.727462 287.664951 
L 335.378073 287.877069 
L 336.028683 288.681546 
L 336.679293 289.286725 
L 337.329903 289.078596 
L 337.980514 287.76721 
L 338.631124 288.921804 
L 339.281734 288.650531 
L 339.932345 289.332459 
L 340.582955 288.634686 
L 341.233565 289.162938 
L 341.884176 289.323774 
L 342.534786 287.571477 
L 343.185396 288.943347 
L 343.836007 288.894014 
L 345.137227 289.650076 
L 345.787837 287.89676 
L 347.089058 290.016206 
L 347.739668 288.768373 
L 348.390279 290.19491 
L 349.040889 287.905122 
L 349.691499 288.378025 
L 350.34211 289.701483 
L 350.99272 289.601533 
L 351.64333 290.049885 
L 352.293941 288.867803 
L 352.944551 288.733411 
L 353.595161 287.808794 
L 354.245772 288.826285 
L 354.896382 288.594586 
L 355.546992 288.156545 
L 356.197602 289.704286 
L 356.848213 289.751608 
L 357.498823 290.17342 
L 358.149433 290.073049 
L 358.800044 288.424824 
L 359.450654 288.959886 
L 360.101264 290.225501 
L 360.751875 289.338779 
L 361.402485 289.147287 
L 362.053095 288.504895 
L 362.703706 289.839067 
L 363.354316 289.999102 
L 364.004926 287.723195 
L 364.655537 289.110503 
L 365.306147 290.028321 
L 365.956757 288.979678 
L 366.607367 290.291476 
L 367.257978 288.835953 
L 367.908588 288.849528 
L 368.559198 291.137179 
L 369.209809 289.92528 
L 369.860419 290.617612 
L 370.511029 287.598222 
L 371.16164 287.178428 
L 371.81225 290.99286 
L 372.46286 290.330893 
L 373.113471 290.163389 
L 373.764081 290.181787 
L 374.414691 289.347234 
L 375.065302 289.557342 
L 375.715912 290.072136 
L 376.366522 288.808904 
L 377.017132 290.91438 
L 377.667743 288.664148 
L 378.318353 289.967036 
L 378.968963 290.192099 
L 379.619574 291.196115 
L 380.270184 290.416969 
L 380.920794 291.035597 
L 381.571405 291.047163 
L 382.222015 289.598744 
L 382.872625 291.413263 
L 383.523236 285.97853 
L 384.173846 289.696004 
L 384.824456 290.915351 
L 385.475066 291.427944 
L 386.125677 290.207211 
L 387.426897 288.337096 
L 388.077508 290.997985 
L 388.728118 292.023956 
L 390.029339 291.868086 
L 390.679949 291.502856 
L 391.330559 290.718707 
L 391.98117 291.146187 
L 392.63178 290.605582 
L 393.28239 291.918889 
L 393.933001 289.411134 
L 394.583611 291.771461 
L 395.234221 291.012985 
L 395.884831 291.677687 
L 396.535442 291.361865 
L 397.186052 292.033784 
L 397.836662 291.00103 
L 398.487273 291.344743 
L 398.487273 291.344743 
" clip-path="url(#p372e688663)" style="fill: none; stroke: #ff7f0e; stroke-width: 1.5; stroke-linecap: square"/>
   </g>
   <g id="patch_3">
    <path d="M 57.6 307.584 
L 57.6 41.472 
" style="fill: none; stroke: #000000; stroke-width: 0.8; stroke-linejoin: miter; stroke-linecap: square"/>
   </g>
   <g id="patch_4">
    <path d="M 414.72 307.584 
L 414.72 41.472 
" style="fill: none; stroke: #000000; stroke-width: 0.8; stroke-linejoin: miter; stroke-linecap: square"/>
   </g>
   <g id="patch_5">
    <path d="M 57.6 307.584 
L 414.72 307.584 
" style="fill: none; stroke: #000000; stroke-width: 0.8; stroke-linejoin: miter; stroke-linecap: square"/>
   </g>
   <g id="patch_6">
    <path d="M 57.6 41.472 
L 414.72 41.472 
" style="fill: none; stroke: #000000; stroke-width: 0.8; stroke-linejoin: miter; stroke-linecap: square"/>
   </g>
   <g id="text_15">
    <!-- Model loss -->
    <g transform="translate(204.647812 35.472) scale(0.12 -0.12)">
     <defs>
      <path id="DejaVuSans-4d" d="M 628 4666 
L 1569 4666 
L 2759 1491 
L 3956 4666 
L 4897 4666 
L 4897 0 
L 4281 0 
L 4281 4097 
L 3078 897 
L 2444 897 
L 1241 4097 
L 1241 0 
L 628 0 
L 628 4666 
z
" transform="scale(0.015625)"/>
      <path id="DejaVuSans-64" d="M 2906 2969 
L 2906 4863 
L 3481 4863 
L 3481 0 
L 2906 0 
L 2906 525 
Q 2725 213 2448 61 
Q 2172 -91 1784 -91 
Q 1150 -91 751 415 
Q 353 922 353 1747 
Q 353 2572 751 3078 
Q 1150 3584 1784 3584 
Q 2172 3584 2448 3432 
Q 2725 3281 2906 2969 
z
M 947 1747 
Q 947 1113 1208 752 
Q 1469 391 1925 391 
Q 2381 391 2643 752 
Q 2906 1113 2906 1747 
Q 2906 2381 2643 2742 
Q 2381 3103 1925 3103 
Q 1469 3103 1208 2742 
Q 947 2381 947 1747 
z
" transform="scale(0.015625)"/>
      <path id="DejaVuSans-65" d="M 3597 1894 
L 3597 1613 
L 953 1613 
Q 991 1019 1311 708 
Q 1631 397 2203 397 
Q 2534 397 2845 478 
Q 3156 559 3463 722 
L 3463 178 
Q 3153 47 2828 -22 
Q 2503 -91 2169 -91 
Q 1331 -91 842 396 
Q 353 884 353 1716 
Q 353 2575 817 3079 
Q 1281 3584 2069 3584 
Q 2775 3584 3186 3129 
Q 3597 2675 3597 1894 
z
M 3022 2063 
Q 3016 2534 2758 2815 
Q 2500 3097 2075 3097 
Q 1594 3097 1305 2825 
Q 1016 2553 972 2059 
L 3022 2063 
z
" transform="scale(0.015625)"/>
      <path id="DejaVuSans-6c" d="M 603 4863 
L 1178 4863 
L 1178 0 
L 603 0 
L 603 4863 
z
" transform="scale(0.015625)"/>
      <path id="DejaVuSans-20" transform="scale(0.015625)"/>
     </defs>
     <use xlink:href="#DejaVuSans-4d"/>
     <use xlink:href="#DejaVuSans-6f" x="86.279297"/>
     <use xlink:href="#DejaVuSans-64" x="147.460938"/>
     <use xlink:href="#DejaVuSans-65" x="210.9375"/>
     <use xlink:href="#DejaVuSans-6c" x="272.460938"/>
     <use xlink:href="#DejaVuSans-20" x="300.244141"/>
     <use xlink:href="#DejaVuSans-6c" x="332.03125"/>
     <use xlink:href="#DejaVuSans-6f" x="359.814453"/>
     <use xlink:href="#DejaVuSans-73" x="420.996094"/>
     <use xlink:href="#DejaVuSans-73" x="473.095703"/>
    </g>
   </g>
   <g id="legend_1">
    <g id="patch_7">
     <path d="M 64.6 78.82825 
L 120.5875 78.82825 
Q 122.5875 78.82825 122.5875 76.82825 
L 122.5875 48.472 
Q 122.5875 46.472 120.5875 46.472 
L 64.6 46.472 
Q 62.6 46.472 62.6 48.472 
L 62.6 76.82825 
Q 62.6 78.82825 64.6 78.82825 
z
" style="fill: #ffffff; opacity: 0.8; stroke: #cccccc; stroke-linejoin: miter"/>
    </g>
    <g id="line2d_15">
     <path d="M 66.6 54.570437 
L 76.6 54.570437 
L 86.6 54.570437 
" style="fill: none; stroke: #1f77b4; stroke-width: 1.5; stroke-linecap: square"/>
    </g>
    <g id="text_16">
     <!-- Train -->
     <g transform="translate(94.6 58.070437) scale(0.1 -0.1)">
      <defs>
       <path id="DejaVuSans-54" d="M -19 4666 
L 3928 4666 
L 3928 4134 
L 2272 4134 
L 2272 0 
L 1638 0 
L 1638 4134 
L -19 4134 
L -19 4666 
z
" transform="scale(0.015625)"/>
       <path id="DejaVuSans-72" d="M 2631 2963 
Q 2534 3019 2420 3045 
Q 2306 3072 2169 3072 
Q 1681 3072 1420 2755 
Q 1159 2438 1159 1844 
L 1159 0 
L 581 0 
L 581 3500 
L 1159 3500 
L 1159 2956 
Q 1341 3275 1631 3429 
Q 1922 3584 2338 3584 
Q 2397 3584 2469 3576 
Q 2541 3569 2628 3553 
L 2631 2963 
z
" transform="scale(0.015625)"/>
       <path id="DejaVuSans-61" d="M 2194 1759 
Q 1497 1759 1228 1600 
Q 959 1441 959 1056 
Q 959 750 1161 570 
Q 1363 391 1709 391 
Q 2188 391 2477 730 
Q 2766 1069 2766 1631 
L 2766 1759 
L 2194 1759 
z
M 3341 1997 
L 3341 0 
L 2766 0 
L 2766 531 
Q 2569 213 2275 61 
Q 1981 -91 1556 -91 
Q 1019 -91 701 211 
Q 384 513 384 1019 
Q 384 1609 779 1909 
Q 1175 2209 1959 2209 
L 2766 2209 
L 2766 2266 
Q 2766 2663 2505 2880 
Q 2244 3097 1772 3097 
Q 1472 3097 1187 3025 
Q 903 2953 641 2809 
L 641 3341 
Q 956 3463 1253 3523 
Q 1550 3584 1831 3584 
Q 2591 3584 2966 3190 
Q 3341 2797 3341 1997 
z
" transform="scale(0.015625)"/>
       <path id="DejaVuSans-69" d="M 603 3500 
L 1178 3500 
L 1178 0 
L 603 0 
L 603 3500 
z
M 603 4863 
L 1178 4863 
L 1178 4134 
L 603 4134 
L 603 4863 
z
" transform="scale(0.015625)"/>
       <path id="DejaVuSans-6e" d="M 3513 2113 
L 3513 0 
L 2938 0 
L 2938 2094 
Q 2938 2591 2744 2837 
Q 2550 3084 2163 3084 
Q 1697 3084 1428 2787 
Q 1159 2491 1159 1978 
L 1159 0 
L 581 0 
L 581 3500 
L 1159 3500 
L 1159 2956 
Q 1366 3272 1645 3428 
Q 1925 3584 2291 3584 
Q 2894 3584 3203 3211 
Q 3513 2838 3513 2113 
z
" transform="scale(0.015625)"/>
      </defs>
      <use xlink:href="#DejaVuSans-54"/>
      <use xlink:href="#DejaVuSans-72" x="46.333984"/>
      <use xlink:href="#DejaVuSans-61" x="87.447266"/>
      <use xlink:href="#DejaVuSans-69" x="148.726562"/>
      <use xlink:href="#DejaVuSans-6e" x="176.509766"/>
     </g>
    </g>
    <g id="line2d_16">
     <path d="M 66.6 69.248562 
L 76.6 69.248562 
L 86.6 69.248562 
" style="fill: none; stroke: #ff7f0e; stroke-width: 1.5; stroke-linecap: square"/>
    </g>
    <g id="text_17">
     <!-- Val -->
     <g transform="translate(94.6 72.748562) scale(0.1 -0.1)">
      <defs>
       <path id="DejaVuSans-56" d="M 1831 0 
L 50 4666 
L 709 4666 
L 2188 738 
L 3669 4666 
L 4325 4666 
L 2547 0 
L 1831 0 
z
" transform="scale(0.015625)"/>
      </defs>
      <use xlink:href="#DejaVuSans-56"/>
      <use xlink:href="#DejaVuSans-61" x="60.658203"/>
      <use xlink:href="#DejaVuSans-6c" x="121.9375"/>
     </g>
    </g>
   </g>
  </g>
 </g>
 <defs>
  <clipPath id="p372e688663">
   <rect x="57.6" y="41.472" width="357.12" height="266.112"/>
  </clipPath>
 </defs>
</svg>
